# xmcd
#
# Track frame offsets: 
#        150
#        26731
#        46471
#        67890
#        87377
#        109023
#        127749
#        153190
#
# Disc length: 2375 seconds
#
# Revision: 0
# Processed by: cddbd v1.5.1PL2 Copyright (c) Steve Scherf et al.
# Submitted via: ExactAudioCopy v0.95b4
#
DISCID=5b094508
DTITLE=James and Troy Andrews - 12 and Shorty
DYEAR=2004
DGENRE=Blues
TTITLE0=Bourbon Street Parade
TTITLE1=Lil' Liza Jane
TTITLE2=(talkin' about the) Zulu King
TTITLE3=You Send Me
TTITLE4=Lady Be Good
TTITLE5=Paper Moon
TTITLE6=Just A Closer Walk With Thee
TTITLE7=Georgia
EXTD=
EXTT0=
EXTT1=
EXTT2=
EXTT3=
EXTT4=
EXTT5=
EXTT6=
EXTT7=
PLAYORDER=
